<svg width="32" height="12" viewBox="0 0 32 12" fill="none" xmlns="http://www.w3.org/2000/svg">
<mask id="mask0_33_13" style="mask-type:luminance" maskUnits="userSpaceOnUse" x="0" y="0" width="32" height="12">
<path d="M32 0H0V12H32V0Z" fill="white"/>
</mask>
<g mask="url(#mask0_33_13)">
<path d="M4.65747 3.45499H7.43977V5.79394H8.49932V0.00842285H7.43977V2.44659H4.65747V0.00842285H3.58984V5.79394H4.65747V3.45499Z" fill="#FF963C"/>
<path fill-rule="evenodd" clip-rule="evenodd" d="M11.0659 5.89313C11.6724 5.89313 12.3599 5.67823 12.7805 5.23189L12.1496 4.59547C11.9232 4.8352 11.446 4.97569 11.082 4.97569C10.3864 4.97569 9.95779 4.61206 9.89306 4.10788H13.007C13.1607 2.43007 12.3276 1.58702 10.993 1.58702C9.69898 1.58702 8.87396 2.47966 8.87396 3.71938C8.87396 5.02528 9.69087 5.89313 11.0659 5.89313ZM11.0254 2.47966C11.5916 2.47966 11.996 2.74413 12.0606 3.2731H9.90927C10.0548 2.74414 10.4916 2.47966 11.0254 2.47966Z" fill="#FF963C"/>
<path fill-rule="evenodd" clip-rule="evenodd" d="M15.5291 5.90954C15.9739 5.90129 16.5967 5.6698 16.8232 5.19046L16.8717 5.78558H17.8018V1.71087H16.8555L16.8232 2.27289C16.5967 1.8679 16.0872 1.61169 15.5534 1.61169C14.3887 1.60342 13.4747 2.33903 13.4747 3.74407C13.4747 5.17387 14.3482 5.91779 15.5291 5.90954ZM15.6423 2.51258C17.1952 2.51258 17.1952 4.98376 15.6423 4.98376C14.9872 4.98376 14.4614 4.52098 14.4614 3.74407C14.4614 2.96716 14.9872 2.51258 15.6423 2.51258Z" fill="#FF963C"/>
<path d="M19.4835 0.00827789H18.5049V5.78554H19.4835V0.00827789Z" fill="#FF963C"/>
<path d="M24.2549 3.70273C24.2549 3.09112 24.6592 2.58696 25.2416 2.58696C25.7674 2.58696 26.1475 2.90106 26.1475 3.64486V5.78551H27.1343V3.63664C27.1343 2.43821 26.6328 1.65305 25.5004 1.65305C25.0475 1.65305 24.6108 1.79352 24.2549 2.26462V0H23.2681V5.78551H24.2549V3.70273Z" fill="#FF963C"/>
<path d="M20.7975 4.34728C20.7975 5.36392 21.3637 5.86807 22.2291 5.83504C22.5284 5.82676 22.7629 5.77717 23.046 5.66143L22.771 4.80187C22.6254 4.8763 22.4475 4.92586 22.2938 4.92586C21.9865 4.92586 21.7762 4.73578 21.7762 4.34731V2.58685H22.8843V1.71903H21.7843V0.725391H20.7975V1.71903H20.0534V2.58685H20.7975V4.34728Z" fill="#FF963C"/>
<path d="M30.9575 1.61163L29.8777 4.09039L28.8024 1.61163H27.7606L29.3556 5.28868L27.1149 10.4324L23.1929 7.03025L0 7.03226V7.97336L22.833 7.97378L27.4593 12L32 1.61163H30.9575Z" fill="#FF963C"/>
</g>
</svg>
